<svg width="400" height="400" viewBox="0 0 400 400" fill="none" xmlns="http://www.w3.org/2000/svg">
<path d="M383 200.5C383 301.292 301.292 383 200.5 383C99.708 383 18 301.292 18 200.5C18 99.708 99.708 18 200.5 18C301.292 18 383 99.708 383 200.5Z" fill="url(#paint0_radial_2416_1483)"/>
<path fill-rule="evenodd" clip-rule="evenodd" d="M200 0C310.457 0 400 89.5431 400 200C400 310.457 310.457 400 200 400C89.5431 400 0 310.457 0 200C0 89.5431 89.5431 0 200 0ZM200 25C103.35 25 25 103.35 25 200C25 296.65 103.35 375 200 375C296.65 375 375 296.65 375 200C375 103.35 296.65 25 200 25Z" fill="url(#paint1_linear_2416_1483)"/>
<path d="M326.775 120.325C329.759 128.34 331.431 141.478 326.779 154.905C322.12 168.354 311.134 182.043 288.894 191.155L288.823 191.185L288.746 191.191L267.874 192.937L266.331 199.522H288.64C293.764 198.267 302.076 195.377 310.382 190.777C318.721 186.159 327.008 179.841 332.076 171.768L333 170.297V223.528L316.041 227.114L303.864 254.19L313.909 271.294L314.082 271.59L285.744 307.276L267.49 297.887L245.409 311.367V326.727L245.377 326.812C243.216 332.546 233.782 342.456 213.389 337.785L213 337.696V282.277L213.362 282.174C216.404 281.301 221.281 279.194 225.965 275.722C230.628 272.264 235.065 267.476 237.331 261.238V168.868H285.521C295.602 165.311 317.754 150.673 325.823 120.371L326.228 118.854L326.775 120.325Z" fill="url(#paint2_linear_2416_1483)"/>
<path d="M74.1924 122.364C76.0276 128.88 80.1743 138.935 86.6377 147.881C93.0959 156.819 101.819 164.585 112.799 166.688H162.938V258.688C165.013 264.657 173.222 277.753 189.643 282.631L190 282.737V335.698L189.636 335.801C186.695 336.628 181.664 337.342 176.067 336.824C170.468 336.306 164.266 334.55 159.022 330.402L158.833 330.252V312.999L137.108 296.099L119.323 306.299L89.0596 276.116L98.8994 258.718L89.2881 227.781L67 222.446V174.366L67.8574 175.245C73.1442 180.664 87.5914 192.724 103.07 197.659H136.3L132.416 190.688C128.619 190.604 122.747 190.294 117.095 189.619C114.196 189.273 111.347 188.831 108.861 188.273C106.385 187.718 104.231 187.04 102.746 186.207C99.2375 184.239 90.4716 180.535 83.2959 171.198C76.1056 161.842 70.5407 146.884 73.2139 122.445L74.1924 122.364Z" fill="url(#paint3_linear_2416_1483)"/>
<path d="M221.938 61.3711L226.512 78.502L259.965 93.415L274.27 81.75L308.124 115.729L295.241 138.125H226.298L219.937 144.509V251.615C219.824 253.879 218.775 257.226 216.02 260.011C213.251 262.808 208.796 265 201.939 265C195.084 265 190.66 262.808 187.932 260.008C185.216 257.221 184.219 253.871 184.142 251.607V144.509L177.781 138.125H110.792L90.8164 115.798L123.812 81.7725L124.161 82.0107L140.785 93.4277L174.935 78.4863L181.637 61H221.839L221.938 61.3711Z" fill="url(#paint4_linear_2416_1483)"/>
<defs>
<radialGradient id="paint0_radial_2416_1483" cx="0" cy="0" r="1" gradientUnits="userSpaceOnUse" gradientTransform="translate(200 200) rotate(90) scale(200)">
<stop stop-color="#111111"/>
<stop offset="1"/>
</radialGradient>
<linearGradient id="paint1_linear_2416_1483" x1="88.7218" y1="30.2159" x2="306.63" y2="362.211" gradientUnits="userSpaceOnUse">
<stop stop-color="#FFF2B2"/>
<stop offset="0.35" stop-color="#F6D57A"/>
<stop offset="0.55" stop-color="#D4A017"/>
<stop offset="0.8" stop-color="#A67600"/>
<stop offset="1" stop-color="#6B4E00"/>
</linearGradient>
<linearGradient id="paint2_linear_2416_1483" x1="88.7218" y1="30.2159" x2="306.63" y2="362.211" gradientUnits="userSpaceOnUse">
<stop stop-color="#FFF2B2"/>
<stop offset="0.35" stop-color="#F6D57A"/>
<stop offset="0.55" stop-color="#D4A017"/>
<stop offset="0.8" stop-color="#A67600"/>
<stop offset="1" stop-color="#6B4E00"/>
</linearGradient>
<linearGradient id="paint3_linear_2416_1483" x1="88.7218" y1="30.2159" x2="306.63" y2="362.211" gradientUnits="userSpaceOnUse">
<stop stop-color="#FFF2B2"/>
<stop offset="0.35" stop-color="#F6D57A"/>
<stop offset="0.55" stop-color="#D4A017"/>
<stop offset="0.8" stop-color="#A67600"/>
<stop offset="1" stop-color="#6B4E00"/>
</linearGradient>
<linearGradient id="paint4_linear_2416_1483" x1="88.7218" y1="30.2159" x2="306.63" y2="362.211" gradientUnits="userSpaceOnUse">
<stop stop-color="#FFF2B2"/>
<stop offset="0.35" stop-color="#F6D57A"/>
<stop offset="0.55" stop-color="#D4A017"/>
<stop offset="0.8" stop-color="#A67600"/>
<stop offset="1" stop-color="#6B4E00"/>
</linearGradient>
</defs>
</svg>
